<svg width="40" height="40" viewBox="0 0 40 40" fill="none" xmlns="http://www.w3.org/2000/svg">
  <defs>
    <linearGradient id="deliveryGradient" x1="0%" y1="0%" x2="100%" y2="100%">
      <stop offset="0%" style="stop-color:#ff9a9e;stop-opacity:1" />
      <stop offset="100%" style="stop-color:#fecfef;stop-opacity:1" />
    </linearGradient>
    <linearGradient id="foodGradient" x1="0%" y1="0%" x2="100%" y2="100%">
      <stop offset="0%" style="stop-color:#a8edea;stop-opacity:1" />
      <stop offset="100%" style="stop-color:#fed6e3;stop-opacity:1" />
    </linearGradient>
    <filter id="shadow" x="-20%" y="-20%" width="140%" height="140%">
      <feDropShadow dx="0" dy="2" stdDeviation="3" flood-color="#000000" flood-opacity="0.1"/>
    </filter>
  </defs>
  
  <!-- Background circle -->
  <circle cx="20" cy="20" r="18" fill="url(#deliveryGradient)" filter="url(#shadow)"/>
  
  <!-- Delivery truck -->
  <rect x="8" y="18" width="16" height="8" rx="2" fill="white" opacity="0.95"/>
  <rect x="10" y="16" width="8" height="6" rx="1" fill="white" opacity="0.95"/>
  
  <!-- Truck wheels -->
  <circle cx="12" cy="28" r="2" fill="#ff9a9e" opacity="0.8"/>
  <circle cx="20" cy="28" r="2" fill="#ff9a9e" opacity="0.8"/>
  <circle cx="12" cy="28" r="1" fill="white"/>
  <circle cx="20" cy="28" r="1" fill="white"/>
  
  <!-- Food package -->
  <rect x="22" y="20" width="6" height="4" rx="1" fill="url(#foodGradient)" opacity="0.9"/>
  <rect x="23" y="21" width="4" height="2" rx="0.5" fill="white" opacity="0.8"/>
  
  <!-- Analytics chart -->
  <path d="M26 12 L28 10 L30 8 L32 6 L34 4" stroke="white" stroke-width="2" fill="none" opacity="0.8"/>
  <circle cx="28" cy="10" r="1.5" fill="white" opacity="0.9"/>
  <circle cx="32" cy="6" r="1.5" fill="white" opacity="0.9"/>
  
  <!-- Delivery route dots -->
  <circle cx="6" cy="14" r="1.5" fill="white" opacity="0.7"/>
  <circle cx="12" cy="12" r="1.5" fill="white" opacity="0.7"/>
  <circle cx="18" cy="14" r="1.5" fill="white" opacity="0.7"/>
  <circle cx="24" cy="12" r="1.5" fill="white" opacity="0.7"/>
  <circle cx="30" cy="14" r="1.5" fill="white" opacity="0.7"/>
  
  <!-- Route lines -->
  <path d="M6 14 L12 12 L18 14 L24 12 L30 14" stroke="white" stroke-width="1" fill="none" opacity="0.5"/>
</svg>