<svg width="40" height="40" viewBox="0 0 40 40" fill="none" xmlns="http://www.w3.org/2000/svg">
  <defs>
    <linearGradient id="shieldGradient" x1="0%" y1="0%" x2="100%" y2="100%">
      <stop offset="0%" style="stop-color:#ff6b6b;stop-opacity:1" />
      <stop offset="100%" style="stop-color:#ee5a24;stop-opacity:1" />
    </linearGradient>
    <linearGradient id="alertGradient" x1="0%" y1="0%" x2="100%" y2="100%">
      <stop offset="0%" style="stop-color:#feca57;stop-opacity:1" />
      <stop offset="100%" style="stop-color:#ff9ff3;stop-opacity:1" />
    </linearGradient>
    <filter id="shadow" x="-20%" y="-20%" width="140%" height="140%">
      <feDropShadow dx="0" dy="2" stdDeviation="3" flood-color="#000000" flood-opacity="0.1"/>
    </filter>
  </defs>
  
  <!-- Background circle -->
  <circle cx="20" cy="20" r="18" fill="url(#shieldGradient)" filter="url(#shadow)"/>
  
  <!-- Shield -->
  <path d="M20 8 L28 12 L28 20 C28 24, 24 28, 20 32 C16 28, 12 24, 12 20 L12 12 Z" fill="white" opacity="0.95"/>
  
  <!-- Shield border -->
  <path d="M20 8 L28 12 L28 20 C28 24, 24 28, 20 32 C16 28, 12 24, 12 20 L12 12 Z" stroke="#ff6b6b" stroke-width="1" fill="none"/>
  
  <!-- Alert triangle -->
  <polygon points="20,14 24,22 16,22" fill="url(#alertGradient)" opacity="0.9"/>
  
  <!-- Exclamation mark -->
  <rect x="19" y="16" width="2" height="4" fill="white" rx="1"/>
  <circle cx="20" cy="22" r="1" fill="white"/>
  
  <!-- Security dots -->
  <circle cx="16" cy="26" r="1.5" fill="#ff6b6b" opacity="0.7"/>
  <circle cx="20" cy="28" r="1.5" fill="#ff6b6b" opacity="0.7"/>
  <circle cx="24" cy="26" r="1.5" fill="#ff6b6b" opacity="0.7"/>
  
  <!-- Connection lines -->
  <path d="M16 26 L20 28 L24 26" stroke="#ff6b6b" stroke-width="1" fill="none" opacity="0.5"/>
</svg>