<svg width="140" height="90" viewBox="0 0 140 90" xmlns="http://www.w3.org/2000/svg">
  <defs>
    <linearGradient id="bgGradient" x1="0%" y1="0%" x2="100%" y2="100%">
      <stop offset="0%" style="stop-color:#667eea;stop-opacity:1" />
      <stop offset="100%" style="stop-color:#764ba2;stop-opacity:1" />
    </linearGradient>
    <linearGradient id="neuralGradient" x1="0%" y1="0%" x2="100%" y2="100%">
      <stop offset="0%" style="stop-color:#4CAF50;stop-opacity:1" />
      <stop offset="100%" style="stop-color:#45a049;stop-opacity:1" />
    </linearGradient>
  </defs>
  
  <!-- Background -->
  <rect width="140" height="90" fill="url(#bgGradient)" rx="8"/>
  
  <!-- Neural Network Nodes -->
  <circle cx="25" cy="20" r="4" fill="white" opacity="0.9"/>
  <circle cx="25" cy="35" r="4" fill="white" opacity="0.9"/>
  <circle cx="25" cy="50" r="4" fill="white" opacity="0.9"/>
  <circle cx="25" cy="65" r="4" fill="white" opacity="0.9"/>
  
  <circle cx="50" cy="25" r="4" fill="white" opacity="0.9"/>
  <circle cx="50" cy="40" r="4" fill="white" opacity="0.9"/>
  <circle cx="50" cy="55" r="4" fill="white" opacity="0.9"/>
  
  <circle cx="75" cy="30" r="4" fill="white" opacity="0.9"/>
  <circle cx="75" cy="45" r="4" fill="white" opacity="0.9"/>
  
  <circle cx="100" cy="37" r="5" fill="url(#neuralGradient)"/>
  
  <!-- Neural Network Connections -->
  <line x1="29" y1="20" x2="46" y2="25" stroke="white" stroke-width="1" opacity="0.7"/>
  <line x1="29" y1="20" x2="46" y2="40" stroke="white" stroke-width="1" opacity="0.7"/>
  <line x1="29" y1="35" x2="46" y2="25" stroke="white" stroke-width="1" opacity="0.7"/>
  <line x1="29" y1="35" x2="46" y2="40" stroke="white" stroke-width="1" opacity="0.7"/>
  <line x1="29" y1="50" x2="46" y2="40" stroke="white" stroke-width="1" opacity="0.7"/>
  <line x1="29" y1="50" x2="46" y2="55" stroke="white" stroke-width="1" opacity="0.7"/>
  <line x1="29" y1="65" x2="46" y2="55" stroke="white" stroke-width="1" opacity="0.7"/>
  
  <line x1="54" y1="25" x2="71" y2="30" stroke="white" stroke-width="1" opacity="0.7"/>
  <line x1="54" y1="25" x2="71" y2="45" stroke="white" stroke-width="1" opacity="0.7"/>
  <line x1="54" y1="40" x2="71" y2="30" stroke="white" stroke-width="1" opacity="0.7"/>
  <line x1="54" y1="40" x2="71" y2="45" stroke="white" stroke-width="1" opacity="0.7"/>
  <line x1="54" y1="55" x2="71" y2="45" stroke="white" stroke-width="1" opacity="0.7"/>
  
  <line x1="79" y1="30" x2="95" y2="37" stroke="white" stroke-width="2" opacity="0.8"/>
  <line x1="79" y1="45" x2="95" y2="37" stroke="white" stroke-width="2" opacity="0.8"/>
  
  <!-- Pet Icons -->
  <g transform="translate(110, 15)">
    <!-- Cat -->
    <path d="M8,8 L12,4 L16,8 L14,12 L10,12 Z" fill="white" opacity="0.8"/>
    <circle cx="10" cy="10" r="1" fill="#667eea"/>
    <circle cx="14" cy="10" r="1" fill="#667eea"/>
    <path d="M10,12 L12,14 L14,12" stroke="white" stroke-width="1" fill="none" opacity="0.8"/>
  </g>
  
  <g transform="translate(110, 35)">
    <!-- Dog -->
    <circle cx="12" cy="8" r="4" fill="white" opacity="0.8"/>
    <circle cx="10" cy="7" r="1" fill="#667eea"/>
    <circle cx="14" cy="7" r="1" fill="#667eea"/>
    <path d="M10,10 L12,12 L14,10" stroke="white" stroke-width="1" fill="none" opacity="0.8"/>
  </g>
  
</svg>
