<svg width="40" height="40" viewBox="0 0 40 40" fill="none" xmlns="http://www.w3.org/2000/svg">
  <defs>
    <linearGradient id="recGradient" x1="0%" y1="0%" x2="100%" y2="100%">
      <stop offset="0%" style="stop-color:#667eea;stop-opacity:1" />
      <stop offset="100%" style="stop-color:#764ba2;stop-opacity:1" />
    </linearGradient>
    <linearGradient id="heartGradient" x1="0%" y1="0%" x2="100%" y2="100%">
      <stop offset="0%" style="stop-color:#ff6b6b;stop-opacity:1" />
      <stop offset="100%" style="stop-color:#ee5a24;stop-opacity:1" />
    </linearGradient>
    <filter id="shadow" x="-20%" y="-20%" width="140%" height="140%">
      <feDropShadow dx="0" dy="2" stdDeviation="3" flood-color="#000000" flood-opacity="0.1"/>
    </filter>
  </defs>
  
  <!-- Background circle -->
  <circle cx="20" cy="20" r="18" fill="url(#recGradient)" filter="url(#shadow)"/>
  
  <!-- Recommendation engine -->
  <rect x="12" y="14" width="16" height="12" rx="2" fill="white" opacity="0.95"/>
  
  <!-- Algorithm nodes -->
  <circle cx="16" cy="18" r="2" fill="#667eea" opacity="0.8"/>
  <circle cx="20" cy="18" r="2" fill="#667eea" opacity="0.8"/>
  <circle cx="24" cy="18" r="2" fill="#667eea" opacity="0.8"/>
  
  <circle cx="16" cy="22" r="2" fill="#667eea" opacity="0.8"/>
  <circle cx="20" cy="22" r="2" fill="#667eea" opacity="0.8"/>
  <circle cx="24" cy="22" r="2" fill="#667eea" opacity="0.8"/>
  
  <!-- Connection lines -->
  <path d="M16 18 L20 18 L24 18" stroke="white" stroke-width="1.5" fill="none" opacity="0.7"/>
  <path d="M16 22 L20 22 L24 22" stroke="white" stroke-width="1.5" fill="none" opacity="0.7"/>
  <path d="M18 18 L18 22" stroke="white" stroke-width="1.5" fill="none" opacity="0.7"/>
  <path d="M22 18 L22 22" stroke="white" stroke-width="1.5" fill="none" opacity="0.7"/>
  
  <!-- Heart recommendation -->
  <path d="M26 28 C26 26, 28 24, 30 26 C32 24, 34 26, 34 28 C34 30, 30 34, 30 34 C30 34, 26 30, 26 28 Z" fill="url(#heartGradient)" opacity="0.9"/>
  
  <!-- Recommendation arrow -->
  <path d="M20 26 L26 28" stroke="white" stroke-width="2" fill="none" opacity="0.8"/>
  <polygon points="24,27 26,28 25,30" fill="white" opacity="0.8"/>
  
  <!-- Star ratings -->
  <polygon points="8,12 9,15 12,15 10,17 11,20 8,18 5,20 6,17 4,15 7,15" fill="white" opacity="0.8"/>
  <polygon points="32,12 33,15 36,15 34,17 35,20 32,18 29,20 30,17 28,15 31,15" fill="white" opacity="0.8"/>
</svg>